<svg xmlns="http://www.w3.org/2000/svg" xmlns:xlink="http://www.w3.org/1999/xlink" width="1350" height="477.62"><rect width="1350" height="477.62" rx="0" ry="0" class="a"/><svg height="477.62" viewBox="0 0 135 47.762" width="1350" xmlns="http://www.w3.org/2000/svg" xmlns:xlink="http://www.w3.org/1999/xlink"><style>@keyframes h{0%{transform:translateX(0)}1.86%{transform:translateX(-135px)}1.9%{transform:translateX(-405px)}3.93%{transform:translateX(-540px)}4.65%{transform:translateX(-675px)}5.25%{transform:translateX(-810px)}5.96%{transform:translateX(-945px)}6.8%{transform:translateX(-1080px)}7.46%{transform:translateX(-1215px)}7.82%{transform:translateX(-1350px)}8.35%{transform:translateX(-1485px)}8.74%{transform:translateX(-1620px)}9.15%{transform:translateX(-1755px)}9.74%{transform:translateX(-1890px)}10.09%{transform:translateX(-2025px)}10.31%{transform:translateX(-2160px)}10.92%{transform:translateX(-2295px)}11.28%{transform:translateX(-2430px)}12.49%{transform:translateX(-2565px)}13.69%{transform:translateX(-2700px)}14.58%{transform:translateX(-2835px)}15.28%{transform:translateX(-2970px)}16.32%{transform:translateX(-3105px)}16.93%{transform:translateX(-3240px)}18.82%{transform:translateX(-3375px)}19.73%{transform:translateX(-3510px)}20.16%{transform:translateX(-3645px)}20.54%{transform:translateX(-3780px)}20.84%{transform:translateX(-3915px)}21.73%{transform:translateX(-4050px)}21.74%{transform:translateX(-4185px)}22.44%{transform:translateX(-4320px)}26.53%{transform:translateX(-4455px)}27.91%{transform:translateX(-4590px)}28.39%{transform:translateX(-4725px)}30.06%{transform:translateX(-4860px)}30.48%{transform:translateX(-4995px)}30.69%{transform:translateX(-5130px)}30.89%{transform:translateX(-5265px)}31.5%{transform:translateX(-5535px)}31.51%{transform:translateX(-5670px)}34.86%{transform:translateX(-5805px)}39.19%{transform:translateX(-6075px)}39.2%{transform:translateX(-6210px)}44.62%{transform:translateX(-6615px)}46.63%{transform:translateX(-6750px)}46.98%{transform:translateX(-6885px)}57.39%{transform:translateX(-7155px)}73.2%{transform:translateX(-7560px)}74.13%{transform:translateX(-7965px)}80.27%{transform:translateX(-8370px)}82.45%{transform:translateX(-8505px)}82.46%{transform:translateX(-8775px)}89.76%{transform:translateX(-9045px)}94%{transform:translateX(-9450px)}94.31%{transform:translateX(-9855px)}94.44%{transform:translateX(-10125px)}94.48%{transform:translateX(-10530px)}to{transform:translateX(-10665px)}}.a{fill:#282d35}.c,.d,.e{fill:#dbab79;white-space:pre}.d,.e{fill:#b9c0cb}.e{fill:#71bef2}</style><g font-family="Monaco,Consolas,Menlo,'Bitstream Vera Sans Mono','Powerline Symbols',monospace" font-size="1.67"><defs><symbol id="1"><text y="1.67" class="c">~</text><text x="2.004" y="1.67" class="c">➤</text></symbol><symbol id="2"><text y="1.67" class="c">~</text><text x="2.004" y="1.67" class="c">➤</text><text x="4.008" y="1.67" class="d">plex-downloader</text></symbol><symbol id="3"><text y="1.67" class="c">~</text><text x="2.004" y="1.67" class="c">➤</text><text x="4.008" y="1.67" class="d">plex-downloader</text><text x="20.04" y="1.67" class="d">-o</text></symbol><symbol id="4"><text y="1.67" class="c">~</text><text x="2.004" y="1.67" class="c">➤</text><text x="4.008" y="1.67" class="d">plex-downloader</text><text x="20.04" y="1.67" class="d">-o</text><text x="23.046" y="1.67" class="d">~/Music</text></symbol><symbol id="5"><text y="1.67" class="d">Plex</text><text x="5.01" y="1.67" class="d">username:</text><text x="15.03" y="1.67" class="d">my-user</text></symbol><symbol id="6"><text y="1.67" class="d">Plex</text><text x="5.01" y="1.67" class="d">password:</text></symbol><symbol id="7"><text y="1.67" class="d">[</text><text x="1.002" y="1.67" class="c">?</text><text x="2.004" y="1.67" class="d">]</text><text x="4.008" y="1.67" class="d">What</text><text x="9.018" y="1.67" class="d">are</text><text x="13.026" y="1.67" class="d">you</text><text x="17.034" y="1.67" class="d">interested</text><text x="28.056" y="1.67" class="d">in?:</text></symbol><symbol id="8"><text x="1.002" y="1.67" class="e">&gt;</text><text x="3.006" y="1.67" class="e">o</text><text x="5.01" y="1.67" class="e">Example</text><text x="13.026" y="1.67" class="e">Playlist</text></symbol><symbol id="9"><text x="3.006" y="1.67" class="d">o</text><text x="5.01" y="1.67" class="d">First</text><text x="11.022" y="1.67" class="d">Playlist</text></symbol><symbol id="10"><text x="3.006" y="1.67" class="d">o</text><text x="5.01" y="1.67" class="d">Modern</text></symbol><symbol id="11"><text x="1.002" y="1.67" class="e">&gt;</text><text x="3.006" y="1.67" class="e">X</text><text x="5.01" y="1.67" class="e">Example</text><text x="13.026" y="1.67" class="e">Playlist</text></symbol><symbol id="12"><text y="1.67" class="d">Built</text><text x="6.012" y="1.67" class="d">to</text><text x="9.018" y="1.67" class="d">Spill</text><text x="15.03" y="1.67" class="d">-</text><text x="17.034" y="1.67" class="d">Perfect</text><text x="25.05" y="1.67" class="d">From</text><text x="30.06" y="1.67" class="d">Now</text><text x="34.068" y="1.67" class="d">On</text><text x="37.074" y="1.67" class="d">-</text><text x="39.078" y="1.67" class="d">02</text><text x="42.084" y="1.67" class="d">-</text><text x="44.088" y="1.67" class="d">I</text><text x="46.092" y="1.67" class="d">Would</text><text x="52.104" y="1.67" class="d">Hurt</text><text x="57.114" y="1.67" class="d">a</text><text x="59.118" y="1.67" class="d">Fly</text></symbol><symbol id="13"><text y="1.67" class="d">Built</text><text x="6.012" y="1.67" class="d">to</text><text x="9.018" y="1.67" class="d">Spill</text><text x="15.03" y="1.67" class="d">-</text><text x="17.034" y="1.67" class="d">Perfect</text><text x="25.05" y="1.67" class="d">From</text><text x="30.06" y="1.67" class="d">Now</text><text x="34.068" y="1.67" class="d">On</text><text x="37.074" y="1.67" class="d">-</text><text x="39.078" y="1.67" class="d">03</text><text x="42.084" y="1.67" class="d">-</text><text x="44.088" y="1.67" class="d">Stop</text><text x="49.098" y="1.67" class="d">the</text><text x="53.106" y="1.67" class="d">Show</text></symbol><symbol id="14"><text x="1.002" y="1.67" class="d">25%|█████████████████████████</text><text x="105.21" y="1.67" class="d">|</text><text x="107.214" y="1.67" class="d">2/8</text><text x="111.222" y="1.67" class="d">[00:07&lt;00:23,</text><text x="126.252" y="1.67" class="d">3.97s/it]</text></symbol><symbol id="15"><text y="1.67" class="d">Built</text><text x="6.012" y="1.67" class="d">to</text><text x="9.018" y="1.67" class="d">Spill</text><text x="15.03" y="1.67" class="d">-</text><text x="17.034" y="1.67" class="d">Perfect</text><text x="25.05" y="1.67" class="d">From</text><text x="30.06" y="1.67" class="d">Now</text><text x="34.068" y="1.67" class="d">On</text><text x="37.074" y="1.67" class="d">-</text><text x="39.078" y="1.67" class="d">04</text><text x="42.084" y="1.67" class="d">-</text><text x="44.088" y="1.67" class="d">Made‐Up</text><text x="52.104" y="1.67" class="d">Dreams</text></symbol><symbol id="16"><text y="1.67" class="d">Built</text><text x="6.012" y="1.67" class="d">to</text><text x="9.018" y="1.67" class="d">Spill</text><text x="15.03" y="1.67" class="d">-</text><text x="17.034" y="1.67" class="d">Perfect</text><text x="25.05" y="1.67" class="d">From</text><text x="30.06" y="1.67" class="d">Now</text><text x="34.068" y="1.67" class="d">On</text><text x="37.074" y="1.67" class="d">-</text><text x="39.078" y="1.67" class="d">01</text><text x="42.084" y="1.67" class="d">-</text><text x="44.088" y="1.67" class="d">Randy</text><text x="50.1" y="1.67" class="d">Described</text><text x="60.12" y="1.67" class="d">Eternity</text></symbol><symbol id="17"><text y="1.67" class="d">Built</text><text x="6.012" y="1.67" class="d">to</text><text x="9.018" y="1.67" class="d">Spill</text><text x="15.03" y="1.67" class="d">-</text><text x="17.034" y="1.67" class="d">Perfect</text><text x="25.05" y="1.67" class="d">From</text><text x="30.06" y="1.67" class="d">Now</text><text x="34.068" y="1.67" class="d">On</text><text x="37.074" y="1.67" class="d">-</text><text x="39.078" y="1.67" class="d">06</text><text x="42.084" y="1.67" class="d">-</text><text x="44.088" y="1.67" class="d">Out</text><text x="48.096" y="1.67" class="d">of</text><text x="51.102" y="1.67" class="d">Site</text></symbol><symbol id="18"><text y="1.67" class="d">Built</text><text x="6.012" y="1.67" class="d">to</text><text x="9.018" y="1.67" class="d">Spill</text><text x="15.03" y="1.67" class="d">-</text><text x="17.034" y="1.67" class="d">Perfect</text><text x="25.05" y="1.67" class="d">From</text><text x="30.06" y="1.67" class="d">Now</text><text x="34.068" y="1.67" class="d">On</text><text x="37.074" y="1.67" class="d">-</text><text x="39.078" y="1.67" class="d">05</text><text x="42.084" y="1.67" class="d">-</text><text x="44.088" y="1.67" class="d">Velvet</text><text x="51.102" y="1.67" class="d">Waltz</text></symbol><symbol id="19"><text y="1.67" class="d">Built</text><text x="6.012" y="1.67" class="d">to</text><text x="9.018" y="1.67" class="d">Spill</text><text x="15.03" y="1.67" class="d">-</text><text x="17.034" y="1.67" class="d">Perfect</text><text x="25.05" y="1.67" class="d">From</text><text x="30.06" y="1.67" class="d">Now</text><text x="34.068" y="1.67" class="d">On</text><text x="37.074" y="1.67" class="d">-</text><text x="39.078" y="1.67" class="d">08</text><text x="42.084" y="1.67" class="d">-</text><text x="44.088" y="1.67" class="d">Untrustable</text><text x="56.112" y="1.67" class="d">/</text><text x="58.116" y="1.67" class="d">Part</text><text x="63.126" y="1.67" class="d">2</text><text x="65.13" y="1.67" class="d">(About</text><text x="72.144" y="1.67" class="d">Someone</text><text x="80.16" y="1.67" class="d">Else)</text></symbol><symbol id="20"><text x="1.002" y="1.67" class="d">88%|███████████████████████████████████████████████████████████████████████████████████████▌</text><text x="105.21" y="1.67" class="d">|</text><text x="107.214" y="1.67" class="d">7/8</text><text x="111.222" y="1.67" class="d">[00:13&lt;00:01,</text><text x="126.252" y="1.67" class="d">1.59s/it]</text></symbol><symbol id="21"><text y="1.67" class="d">Built</text><text x="6.012" y="1.67" class="d">to</text><text x="9.018" y="1.67" class="d">Spill</text><text x="15.03" y="1.67" class="d">-</text><text x="17.034" y="1.67" class="d">Perfect</text><text x="25.05" y="1.67" class="d">From</text><text x="30.06" y="1.67" class="d">Now</text><text x="34.068" y="1.67" class="d">On</text><text x="37.074" y="1.67" class="d">-</text><text x="39.078" y="1.67" class="d">07</text><text x="42.084" y="1.67" class="d">-</text><text x="44.088" y="1.67" class="d">Kicked</text><text x="51.102" y="1.67" class="d">It</text><text x="54.108" y="1.67" class="d">in</text><text x="57.114" y="1.67" class="d">the</text><text x="61.122" y="1.67" class="d">Sun</text></symbol><symbol id="22"><text y="1.67" class="d">100%|████████████████████████████████████████████████████████████████████████████████████████████████████|</text><text x="107.214" y="1.67" class="d">8/8</text><text x="111.222" y="1.67" class="d">[00:13&lt;00:00,</text><text x="126.252" y="1.67" class="d">1.73s/it]</text></symbol><symbol id="a"><path fill="transparent" d="M0 0h135v22H0z"/></symbol><symbol id="b"><path fill="#6f7683" d="M0 0h1.102v2.171H0z"/></symbol></defs><path class="a" d="M0 0h135v47.762H0z"/><g style="animation-duration:29.215757s;animation-iteration-count:infinite;animation-name:h;animation-timing-function:steps(1,end)"><svg width="10800"><svg><use xlink:href="#a"/><use xlink:href="#b" x="-.004"/></svg><svg x="135"><use xlink:href="#a"/><use xlink:href="#b" x="-.004"/></svg><svg x="270"><use xlink:href="#a"/><use xlink:href="#b" x="3.996"/><use xlink:href="#1"/></svg><svg x="405"><use xlink:href="#a"/><use xlink:href="#b" x="3.996"/><use xlink:href="#1"/></svg><svg x="540"><use xlink:href="#a"/><use xlink:href="#b" x="4.996"/><text y="1.67" class="c">~</text><text x="2.004" y="1.67" class="c">➤</text><text x="4.008" y="1.67" class="d">p</text></svg><svg x="675"><use xlink:href="#a"/><use xlink:href="#b" x="5.996"/><text y="1.67" class="c">~</text><text x="2.004" y="1.67" class="c">➤</text><text x="4.008" y="1.67" class="d">pl</text></svg><svg x="810"><use xlink:href="#a"/><use xlink:href="#b" x="6.996"/><text y="1.67" class="c">~</text><text x="2.004" y="1.67" class="c">➤</text><text x="4.008" y="1.67" class="d">ple</text></svg><svg x="945"><use xlink:href="#a"/><use xlink:href="#b" x="7.996"/><text y="1.67" class="c">~</text><text x="2.004" y="1.67" class="c">➤</text><text x="4.008" y="1.67" class="d">plex</text></svg><svg x="1080"><use xlink:href="#a"/><use xlink:href="#b" x="8.996"/><text y="1.67" class="c">~</text><text x="2.004" y="1.67" class="c">➤</text><text x="4.008" y="1.67" class="d">plex-</text></svg><svg x="1215"><use xlink:href="#a"/><use xlink:href="#b" x="9.996"/><text y="1.67" class="c">~</text><text x="2.004" y="1.67" class="c">➤</text><text x="4.008" y="1.67" class="d">plex-d</text></svg><svg x="1350"><use xlink:href="#a"/><use xlink:href="#b" x="10.996"/><text y="1.67" class="c">~</text><text x="2.004" y="1.67" class="c">➤</text><text x="4.008" y="1.67" class="d">plex-do</text></svg><svg x="1485"><use xlink:href="#a"/><use xlink:href="#b" x="11.996"/><text y="1.67" class="c">~</text><text x="2.004" y="1.67" class="c">➤</text><text x="4.008" y="1.67" class="d">plex-dow</text></svg><svg x="1620"><use xlink:href="#a"/><use xlink:href="#b" x="12.996"/><text y="1.67" class="c">~</text><text x="2.004" y="1.67" class="c">➤</text><text x="4.008" y="1.67" class="d">plex-down</text></svg><svg x="1755"><use xlink:href="#a"/><use xlink:href="#b" x="13.996"/><text y="1.67" class="c">~</text><text x="2.004" y="1.67" class="c">➤</text><text x="4.008" y="1.67" class="d">plex-downl</text></svg><svg x="1890"><use xlink:href="#a"/><use xlink:href="#b" x="14.996"/><text y="1.67" class="c">~</text><text x="2.004" y="1.67" class="c">➤</text><text x="4.008" y="1.67" class="d">plex-downlo</text></svg><svg x="2025"><use xlink:href="#a"/><use xlink:href="#b" x="15.996"/><text y="1.67" class="c">~</text><text x="2.004" y="1.67" class="c">➤</text><text x="4.008" y="1.67" class="d">plex-downloa</text></svg><svg x="2160"><use xlink:href="#a"/><use xlink:href="#b" x="16.996"/><text y="1.67" class="c">~</text><text x="2.004" y="1.67" class="c">➤</text><text x="4.008" y="1.67" class="d">plex-download</text></svg><svg x="2295"><use xlink:href="#a"/><use xlink:href="#b" x="17.996"/><text y="1.67" class="c">~</text><text x="2.004" y="1.67" class="c">➤</text><text x="4.008" y="1.67" class="d">plex-downloade</text></svg><svg x="2430"><use xlink:href="#a"/><use xlink:href="#b" x="18.996"/><use xlink:href="#2"/></svg><svg x="2565"><use xlink:href="#a"/><use xlink:href="#b" x="19.996"/><use xlink:href="#2"/></svg><svg x="2700"><use xlink:href="#a"/><use xlink:href="#b" x="20.996"/><text y="1.67" class="c">~</text><text x="2.004" y="1.67" class="c">➤</text><text x="4.008" y="1.67" class="d">plex-downloader</text><text x="20.04" y="1.67" class="d">-</text></svg><svg x="2835"><use xlink:href="#a"/><use xlink:href="#b" x="21.996"/><use xlink:href="#3"/></svg><svg x="2970"><use xlink:href="#a"/><use xlink:href="#b" x="22.996"/><use xlink:href="#3"/></svg><svg x="3105"><use xlink:href="#a"/><use xlink:href="#b" x="23.996"/><text y="1.67" class="c">~</text><text x="2.004" y="1.67" class="c">➤</text><text x="4.008" y="1.67" class="d">plex-downloader</text><text x="20.04" y="1.67" class="d">-o</text><text x="23.046" y="1.67" class="d">~</text></svg><svg x="3240"><use xlink:href="#a"/><use xlink:href="#b" x="24.996"/><text y="1.67" class="c">~</text><text x="2.004" y="1.67" class="c">➤</text><text x="4.008" y="1.67" class="d">plex-downloader</text><text x="20.04" y="1.67" class="d">-o</text><text x="23.046" y="1.67" class="d">~/</text></svg><svg x="3375"><use xlink:href="#a"/><use xlink:href="#b" x="25.996"/><text y="1.67" class="c">~</text><text x="2.004" y="1.67" class="c">➤</text><text x="4.008" y="1.67" class="d">plex-downloader</text><text x="20.04" y="1.67" class="d">-o</text><text x="23.046" y="1.67" class="d">~/M</text></svg><svg x="3510"><use xlink:href="#a"/><use xlink:href="#b" x="26.996"/><text y="1.67" class="c">~</text><text x="2.004" y="1.67" class="c">➤</text><text x="4.008" y="1.67" class="d">plex-downloader</text><text x="20.04" y="1.67" class="d">-o</text><text x="23.046" y="1.67" class="d">~/Mu</text></svg><svg x="3645"><use xlink:href="#a"/><use xlink:href="#b" x="27.996"/><text y="1.67" class="c">~</text><text x="2.004" y="1.67" class="c">➤</text><text x="4.008" y="1.67" class="d">plex-downloader</text><text x="20.04" y="1.67" class="d">-o</text><text x="23.046" y="1.67" class="d">~/Mus</text></svg><svg x="3780"><use xlink:href="#a"/><use xlink:href="#b" x="28.996"/><text y="1.67" class="c">~</text><text x="2.004" y="1.67" class="c">➤</text><text x="4.008" y="1.67" class="d">plex-downloader</text><text x="20.04" y="1.67" class="d">-o</text><text x="23.046" y="1.67" class="d">~/Musi</text></svg><svg x="3915"><use xlink:href="#a"/><use xlink:href="#b" x="29.996"/><use xlink:href="#4"/></svg><svg x="4050"><use xlink:href="#a"/><use xlink:href="#b" x="-.004" y="2.146"/><use xlink:href="#4"/></svg><svg x="4185"><use xlink:href="#a"/><use xlink:href="#b" x="-.004" y="2.146"/><use xlink:href="#4"/></svg><svg x="4320"><use xlink:href="#a"/><use xlink:href="#b" x="14.996" y="2.146"/><use xlink:href="#4"/><text y="3.841" class="d">Plex</text><text x="5.01" y="3.841" class="d">username:</text></svg><svg x="4455"><use xlink:href="#a"/><use xlink:href="#b" x="15.996" y="2.146"/><use xlink:href="#4"/><text y="3.841" class="d">Plex</text><text x="5.01" y="3.841" class="d">username:</text><text x="15.03" y="3.841" class="d">m</text></svg><svg x="4590"><use xlink:href="#a"/><use xlink:href="#b" x="16.996" y="2.146"/><use xlink:href="#4"/><text y="3.841" class="d">Plex</text><text x="5.01" y="3.841" class="d">username:</text><text x="15.03" y="3.841" class="d">my</text></svg><svg x="4725"><use xlink:href="#a"/><use xlink:href="#b" x="17.996" y="2.146"/><use xlink:href="#4"/><text y="3.841" class="d">Plex</text><text x="5.01" y="3.841" class="d">username:</text><text x="15.03" y="3.841" class="d">my-</text></svg><svg x="4860"><use xlink:href="#a"/><use xlink:href="#b" x="18.996" y="2.146"/><use xlink:href="#4"/><text y="3.841" class="d">Plex</text><text x="5.01" y="3.841" class="d">username:</text><text x="15.03" y="3.841" class="d">my-u</text></svg><svg x="4995"><use xlink:href="#a"/><use xlink:href="#b" x="19.996" y="2.146"/><use xlink:href="#4"/><text y="3.841" class="d">Plex</text><text x="5.01" y="3.841" class="d">username:</text><text x="15.03" y="3.841" class="d">my-us</text></svg><svg x="5130"><use xlink:href="#a"/><use xlink:href="#b" x="20.996" y="2.146"/><use xlink:href="#4"/><text y="3.841" class="d">Plex</text><text x="5.01" y="3.841" class="d">username:</text><text x="15.03" y="3.841" class="d">my-use</text></svg><svg x="5265"><use xlink:href="#a"/><use xlink:href="#b" x="21.996" y="2.146"/><use xlink:href="#4"/><use xlink:href="#5" y="2.171"/></svg><svg x="5400"><use xlink:href="#a"/><use xlink:href="#b" x="-.004" y="4.317"/><use xlink:href="#4"/><use xlink:href="#5" y="2.171"/></svg><svg x="5535"><use xlink:href="#a"/><use xlink:href="#b" x="13.996" y="4.317"/><use xlink:href="#4"/><use xlink:href="#5" y="2.171"/><use xlink:href="#6" y="4.342"/></svg><svg x="5670"><use xlink:href="#a"/><use xlink:href="#b" x="14.996" y="4.317"/><use xlink:href="#4"/><use xlink:href="#5" y="2.171"/><use xlink:href="#6" y="4.342"/></svg><svg x="5805"><use xlink:href="#a"/><use xlink:href="#b" x="-.004" y="6.488"/><use xlink:href="#4"/><use xlink:href="#5" y="2.171"/><use xlink:href="#6" y="4.342"/></svg><svg x="5940"><use xlink:href="#a"/><use xlink:href="#b" x="-.004" y="6.488"/><use xlink:href="#4"/><use xlink:href="#5" y="2.171"/><use xlink:href="#6" y="4.342"/></svg><svg x="6075"><use xlink:href="#a"/><use xlink:href="#b" x="-.004" y="8.659"/><use xlink:href="#4"/><use xlink:href="#5" y="2.171"/><use xlink:href="#6" y="4.342"/><use xlink:href="#7" y="6.513"/></svg><svg x="6210"><use xlink:href="#a"/><use xlink:href="#b" x="-.004" y="15.172"/><use xlink:href="#4"/><use xlink:href="#5" y="2.171"/><use xlink:href="#6" y="4.342"/><use xlink:href="#7" y="6.513"/><use xlink:href="#8" y="8.684"/><use xlink:href="#9" y="10.855"/><use xlink:href="#10" y="13.026"/></svg><svg x="6345"><use xlink:href="#a"/><use xlink:href="#b" x="-.004" y="6.488"/><use xlink:href="#4"/><use xlink:href="#5" y="2.171"/><use xlink:href="#6" y="4.342"/><use xlink:href="#7" y="6.513"/><use xlink:href="#8" y="8.684"/><use xlink:href="#9" y="10.855"/><use xlink:href="#10" y="13.026"/></svg><svg x="6480"><use xlink:href="#a"/><use xlink:href="#b" x="-.004" y="6.488"/><use xlink:href="#4"/><use xlink:href="#5" y="2.171"/><use xlink:href="#6" y="4.342"/><use xlink:href="#7" y="6.513"/><use xlink:href="#8" y="8.684"/><use xlink:href="#9" y="10.855"/><use xlink:href="#10" y="13.026"/></svg><svg x="6615"><use xlink:href="#a"/><use xlink:href="#b" x="-.004" y="15.172"/><use xlink:href="#4"/><use xlink:href="#5" y="2.171"/><use xlink:href="#6" y="4.342"/><use xlink:href="#7" y="6.513"/><use xlink:href="#11" y="8.684"/><use xlink:href="#9" y="10.855"/><use xlink:href="#10" y="13.026"/></svg><svg x="6750"><use xlink:href="#a"/><use xlink:href="#b" x="-.004" y="17.343"/><use xlink:href="#4"/><use xlink:href="#5" y="2.171"/><use xlink:href="#6" y="4.342"/><use xlink:href="#7" y="6.513"/><use xlink:href="#11" y="8.684"/><use xlink:href="#9" y="10.855"/><use xlink:href="#10" y="13.026"/></svg><svg x="6885"><use xlink:href="#a"/><use xlink:href="#b" x="134.996" y="17.343"/><use xlink:href="#4"/><use xlink:href="#5" y="2.171"/><use xlink:href="#6" y="4.342"/><use xlink:href="#7" y="6.513"/><use xlink:href="#11" y="8.684"/><use xlink:href="#9" y="10.855"/><use xlink:href="#10" y="13.026"/><text x="2.004" y="19.038" class="d">0%|</text><text x="113.226" y="19.038" class="d">|</text><text x="115.23" y="19.038" class="d">0/8</text><text x="119.238" y="19.038" class="d">[00:00&lt;?,</text><text x="129.258" y="19.038" class="d">?it/s]</text></svg><svg x="7020"><use xlink:href="#a"/><use xlink:href="#b" x="-.004" y="19.514"/><use xlink:href="#4"/><use xlink:href="#5" y="2.171"/><use xlink:href="#6" y="4.342"/><use xlink:href="#7" y="6.513"/><use xlink:href="#11" y="8.684"/><use xlink:href="#9" y="10.855"/><use xlink:href="#10" y="13.026"/><use xlink:href="#12" y="17.368"/></svg><svg x="7155"><use xlink:href="#a"/><use xlink:href="#b" x="134.996" y="19.514"/><use xlink:href="#4"/><use xlink:href="#5" y="2.171"/><use xlink:href="#6" y="4.342"/><use xlink:href="#7" y="6.513"/><use xlink:href="#11" y="8.684"/><use xlink:href="#9" y="10.855"/><use xlink:href="#10" y="13.026"/><use xlink:href="#12" y="17.368"/><text x="1.002" y="21.209" class="d">12%|████████████▌</text><text x="105.21" y="21.209" class="d">|</text><text x="107.214" y="21.209" class="d">1/8</text><text x="111.222" y="21.209" class="d">[00:03&lt;00:21,</text><text x="126.252" y="21.209" class="d">3.04s/it]</text></svg><svg x="7290"><use xlink:href="#a"/><use xlink:href="#b" x="-.004" y="21.685"/><use xlink:href="#4"/><use xlink:href="#5" y="2.171"/><use xlink:href="#6" y="4.342"/><use xlink:href="#7" y="6.513"/><use xlink:href="#11" y="8.684"/><use xlink:href="#9" y="10.855"/><use xlink:href="#10" y="13.026"/><use xlink:href="#12" y="17.368"/><use xlink:href="#13" y="19.539"/></svg><svg x="7425"><use xlink:href="#a"/><use xlink:href="#b" x="134.996" y="21.685"/><use xlink:href="#4"/><use xlink:href="#5" y="2.171"/><use xlink:href="#6" y="4.342"/><use xlink:href="#7" y="6.513"/><use xlink:href="#11" y="8.684"/><use xlink:href="#9" y="10.855"/><use xlink:href="#10" y="13.026"/><use xlink:href="#12" y="17.368"/><use xlink:href="#13" y="19.539"/><text x="1.002" y="23.38" class="d">12%|████████████▌</text><text x="105.21" y="23.38" class="d">|</text><text x="107.214" y="23.38" class="d">1/8</text><text x="111.222" y="23.38" class="d">[00:07&lt;00:21,</text><text x="126.252" y="23.38" class="d">3.04s/it]</text></svg><svg x="7560"><use xlink:href="#a"/><use xlink:href="#b" x="134.996" y="21.685"/><use xlink:href="#4"/><use xlink:href="#5" y="2.171"/><use xlink:href="#6" y="4.342"/><use xlink:href="#7" y="6.513"/><use xlink:href="#11" y="8.684"/><use xlink:href="#9" y="10.855"/><use xlink:href="#10" y="13.026"/><use xlink:href="#12" y="17.368"/><use xlink:href="#13" y="19.539"/><use xlink:href="#14" y="21.71"/></svg><svg x="7695"><use xlink:href="#a"/><use xlink:href="#b" x="-.004" y="23.856"/><use xlink:href="#4"/><use xlink:href="#5" y="2.171"/><use xlink:href="#6" y="4.342"/><use xlink:href="#7" y="6.513"/><use xlink:href="#11" y="8.684"/><use xlink:href="#9" y="10.855"/><use xlink:href="#10" y="13.026"/><use xlink:href="#12" y="17.368"/><use xlink:href="#13" y="19.539"/><use xlink:href="#15" y="21.71"/></svg><svg x="7830"><use xlink:href="#a"/><use xlink:href="#b" x="134.996" y="23.856"/><use xlink:href="#4"/><use xlink:href="#5" y="2.171"/><use xlink:href="#6" y="4.342"/><use xlink:href="#7" y="6.513"/><use xlink:href="#11" y="8.684"/><use xlink:href="#9" y="10.855"/><use xlink:href="#10" y="13.026"/><use xlink:href="#12" y="17.368"/><use xlink:href="#13" y="19.539"/><use xlink:href="#15" y="21.71"/><use xlink:href="#14" y="23.881"/></svg><svg x="7965"><use xlink:href="#a"/><use xlink:href="#b" x="134.996" y="23.856"/><use xlink:href="#4"/><use xlink:href="#5" y="2.171"/><use xlink:href="#6" y="4.342"/><use xlink:href="#7" y="6.513"/><use xlink:href="#11" y="8.684"/><use xlink:href="#9" y="10.855"/><use xlink:href="#10" y="13.026"/><use xlink:href="#12" y="17.368"/><use xlink:href="#13" y="19.539"/><use xlink:href="#15" y="21.71"/><text x="1.002" y="25.551" class="d">38%|█████████████████████████████████████▌</text><text x="105.21" y="25.551" class="d">|</text><text x="107.214" y="25.551" class="d">3/8</text><text x="111.222" y="25.551" class="d">[00:07&lt;00:11,</text><text x="126.252" y="25.551" class="d">2.28s/it]</text></svg><svg x="8100"><use xlink:href="#a"/><use xlink:href="#b" x="-.004" y="26.027"/><use xlink:href="#4"/><use xlink:href="#5" y="2.171"/><use xlink:href="#6" y="4.342"/><use xlink:href="#7" y="6.513"/><use xlink:href="#11" y="8.684"/><use xlink:href="#9" y="10.855"/><use xlink:href="#10" y="13.026"/><use xlink:href="#12" y="17.368"/><use xlink:href="#13" y="19.539"/><use xlink:href="#15" y="21.71"/><use xlink:href="#16" y="23.881"/></svg><svg x="8235"><use xlink:href="#a"/><use xlink:href="#b" x="134.996" y="26.027"/><use xlink:href="#4"/><use xlink:href="#5" y="2.171"/><use xlink:href="#6" y="4.342"/><use xlink:href="#7" y="6.513"/><use xlink:href="#11" y="8.684"/><use xlink:href="#9" y="10.855"/><use xlink:href="#10" y="13.026"/><use xlink:href="#12" y="17.368"/><use xlink:href="#13" y="19.539"/><use xlink:href="#15" y="21.71"/><use xlink:href="#16" y="23.881"/><text x="1.002" y="27.722" class="d">38%|█████████████████████████████████████▌</text><text x="105.21" y="27.722" class="d">|</text><text x="107.214" y="27.722" class="d">3/8</text><text x="111.222" y="27.722" class="d">[00:09&lt;00:11,</text><text x="126.252" y="27.722" class="d">2.28s/it]</text></svg><svg x="8370"><use xlink:href="#a"/><use xlink:href="#b" x="134.996" y="26.027"/><use xlink:href="#4"/><use xlink:href="#5" y="2.171"/><use xlink:href="#6" y="4.342"/><use xlink:href="#7" y="6.513"/><use xlink:href="#11" y="8.684"/><use xlink:href="#9" y="10.855"/><use xlink:href="#10" y="13.026"/><use xlink:href="#12" y="17.368"/><use xlink:href="#13" y="19.539"/><use xlink:href="#15" y="21.71"/><use xlink:href="#16" y="23.881"/><text x="1.002" y="27.722" class="d">50%|██████████████████████████████████████████████████</text><text x="105.21" y="27.722" class="d">|</text><text x="107.214" y="27.722" class="d">4/8</text><text x="111.222" y="27.722" class="d">[00:09&lt;00:08,</text><text x="126.252" y="27.722" class="d">2.09s/it]</text></svg><svg x="8505"><use xlink:href="#a"/><use xlink:href="#b" x="-.004" y="28.198"/><use xlink:href="#4"/><use xlink:href="#5" y="2.171"/><use xlink:href="#6" y="4.342"/><use xlink:href="#7" y="6.513"/><use xlink:href="#11" y="8.684"/><use xlink:href="#9" y="10.855"/><use xlink:href="#10" y="13.026"/><use xlink:href="#12" y="17.368"/><use xlink:href="#13" y="19.539"/><use xlink:href="#15" y="21.71"/><use xlink:href="#16" y="23.881"/><use xlink:href="#17" y="26.052"/></svg><svg x="8640"><use xlink:href="#a"/><use xlink:href="#b" x="134.996" y="28.198"/><use xlink:href="#4"/><use xlink:href="#5" y="2.171"/><use xlink:href="#6" y="4.342"/><use xlink:href="#7" y="6.513"/><use xlink:href="#11" y="8.684"/><use xlink:href="#9" y="10.855"/><use xlink:href="#10" y="13.026"/><use xlink:href="#12" y="17.368"/><use xlink:href="#13" y="19.539"/><use xlink:href="#15" y="21.71"/><use xlink:href="#16" y="23.881"/><use xlink:href="#17" y="26.052"/><text x="1.002" y="29.893" class="d">50%|██████████████████████████████████████████████████</text><text x="105.21" y="29.893" class="d">|</text><text x="107.214" y="29.893" class="d">4/8</text><text x="111.222" y="29.893" class="d">[00:10&lt;00:08,</text><text x="126.252" y="29.893" class="d">2.09s/it]</text></svg><svg x="8775"><use xlink:href="#a"/><use xlink:href="#b" x="134.996" y="28.198"/><use xlink:href="#4"/><use xlink:href="#5" y="2.171"/><use xlink:href="#6" y="4.342"/><use xlink:href="#7" y="6.513"/><use xlink:href="#11" y="8.684"/><use xlink:href="#9" y="10.855"/><use xlink:href="#10" y="13.026"/><use xlink:href="#12" y="17.368"/><use xlink:href="#13" y="19.539"/><use xlink:href="#15" y="21.71"/><use xlink:href="#16" y="23.881"/><use xlink:href="#17" y="26.052"/><text x="1.002" y="29.893" class="d">62%|██████████████████████████████████████████████████████████████▌</text><text x="105.21" y="29.893" class="d">|</text><text x="107.214" y="29.893" class="d">5/8</text><text x="111.222" y="29.893" class="d">[00:10&lt;00:04,</text><text x="126.252" y="29.893" class="d">1.57s/it]</text></svg><svg x="8910"><use xlink:href="#a"/><use xlink:href="#b" x="-.004" y="30.369"/><use xlink:href="#4"/><use xlink:href="#5" y="2.171"/><use xlink:href="#6" y="4.342"/><use xlink:href="#7" y="6.513"/><use xlink:href="#11" y="8.684"/><use xlink:href="#9" y="10.855"/><use xlink:href="#10" y="13.026"/><use xlink:href="#12" y="17.368"/><use xlink:href="#13" y="19.539"/><use xlink:href="#15" y="21.71"/><use xlink:href="#16" y="23.881"/><use xlink:href="#17" y="26.052"/><use xlink:href="#18" y="28.223"/></svg><svg x="9045"><use xlink:href="#a"/><use xlink:href="#b" x="134.996" y="30.369"/><use xlink:href="#4"/><use xlink:href="#5" y="2.171"/><use xlink:href="#6" y="4.342"/><use xlink:href="#7" y="6.513"/><use xlink:href="#11" y="8.684"/><use xlink:href="#9" y="10.855"/><use xlink:href="#10" y="13.026"/><use xlink:href="#12" y="17.368"/><use xlink:href="#13" y="19.539"/><use xlink:href="#15" y="21.71"/><use xlink:href="#16" y="23.881"/><use xlink:href="#17" y="26.052"/><use xlink:href="#18" y="28.223"/><text x="1.002" y="32.064" class="d">75%|███████████████████████████████████████████████████████████████████████████</text><text x="105.21" y="32.064" class="d">|</text><text x="107.214" y="32.064" class="d">6/8</text><text x="111.222" y="32.064" class="d">[00:12&lt;00:03,</text><text x="126.252" y="32.064" class="d">1.76s/it]</text></svg><svg x="9180"><use xlink:href="#a"/><use xlink:href="#b" x="-.004" y="32.54"/><use xlink:href="#4"/><use xlink:href="#5" y="2.171"/><use xlink:href="#6" y="4.342"/><use xlink:href="#7" y="6.513"/><use xlink:href="#11" y="8.684"/><use xlink:href="#9" y="10.855"/><use xlink:href="#10" y="13.026"/><use xlink:href="#12" y="17.368"/><use xlink:href="#13" y="19.539"/><use xlink:href="#15" y="21.71"/><use xlink:href="#16" y="23.881"/><use xlink:href="#17" y="26.052"/><use xlink:href="#18" y="28.223"/><use xlink:href="#19" y="30.394"/></svg><svg x="9315"><use xlink:href="#a"/><use xlink:href="#b" x="134.996" y="32.54"/><use xlink:href="#4"/><use xlink:href="#5" y="2.171"/><use xlink:href="#6" y="4.342"/><use xlink:href="#7" y="6.513"/><use xlink:href="#11" y="8.684"/><use xlink:href="#9" y="10.855"/><use xlink:href="#10" y="13.026"/><use xlink:href="#12" y="17.368"/><use xlink:href="#13" y="19.539"/><use xlink:href="#15" y="21.71"/><use xlink:href="#16" y="23.881"/><use xlink:href="#17" y="26.052"/><use xlink:href="#18" y="28.223"/><use xlink:href="#19" y="30.394"/><text x="1.002" y="34.235" class="d">75%|███████████████████████████████████████████████████████████████████████████</text><text x="105.21" y="34.235" class="d">|</text><text x="107.214" y="34.235" class="d">6/8</text><text x="111.222" y="34.235" class="d">[00:13&lt;00:03,</text><text x="126.252" y="34.235" class="d">1.76s/it]</text></svg><svg x="9450"><use xlink:href="#a"/><use xlink:href="#b" x="134.996" y="32.54"/><use xlink:href="#4"/><use xlink:href="#5" y="2.171"/><use xlink:href="#6" y="4.342"/><use xlink:href="#7" y="6.513"/><use xlink:href="#11" y="8.684"/><use xlink:href="#9" y="10.855"/><use xlink:href="#10" y="13.026"/><use xlink:href="#12" y="17.368"/><use xlink:href="#13" y="19.539"/><use xlink:href="#15" y="21.71"/><use xlink:href="#16" y="23.881"/><use xlink:href="#17" y="26.052"/><use xlink:href="#18" y="28.223"/><use xlink:href="#19" y="30.394"/><use xlink:href="#20" y="32.565"/></svg><svg x="9585"><use xlink:href="#a"/><use xlink:href="#b" x="-.004" y="34.711"/><use xlink:href="#4"/><use xlink:href="#5" y="2.171"/><use xlink:href="#6" y="4.342"/><use xlink:href="#7" y="6.513"/><use xlink:href="#11" y="8.684"/><use xlink:href="#9" y="10.855"/><use xlink:href="#10" y="13.026"/><use xlink:href="#12" y="17.368"/><use xlink:href="#13" y="19.539"/><use xlink:href="#15" y="21.71"/><use xlink:href="#16" y="23.881"/><use xlink:href="#17" y="26.052"/><use xlink:href="#18" y="28.223"/><use xlink:href="#19" y="30.394"/><use xlink:href="#21" y="32.565"/></svg><svg x="9720"><use xlink:href="#a"/><use xlink:href="#b" x="134.996" y="34.711"/><use xlink:href="#4"/><use xlink:href="#5" y="2.171"/><use xlink:href="#6" y="4.342"/><use xlink:href="#7" y="6.513"/><use xlink:href="#11" y="8.684"/><use xlink:href="#9" y="10.855"/><use xlink:href="#10" y="13.026"/><use xlink:href="#12" y="17.368"/><use xlink:href="#13" y="19.539"/><use xlink:href="#15" y="21.71"/><use xlink:href="#16" y="23.881"/><use xlink:href="#17" y="26.052"/><use xlink:href="#18" y="28.223"/><use xlink:href="#19" y="30.394"/><use xlink:href="#21" y="32.565"/><use xlink:href="#20" y="34.736"/></svg><svg x="9855"><use xlink:href="#a"/><use xlink:href="#b" x="-.004" y="36.882"/><use xlink:href="#4"/><use xlink:href="#5" y="2.171"/><use xlink:href="#6" y="4.342"/><use xlink:href="#7" y="6.513"/><use xlink:href="#11" y="8.684"/><use xlink:href="#9" y="10.855"/><use xlink:href="#10" y="13.026"/><use xlink:href="#12" y="17.368"/><use xlink:href="#13" y="19.539"/><use xlink:href="#15" y="21.71"/><use xlink:href="#16" y="23.881"/><use xlink:href="#17" y="26.052"/><use xlink:href="#18" y="28.223"/><use xlink:href="#19" y="30.394"/><use xlink:href="#21" y="32.565"/><use xlink:href="#22" y="34.736"/></svg><svg x="9990"><use xlink:href="#a"/><use xlink:href="#b" x="-.004" y="36.882"/><use xlink:href="#4"/><use xlink:href="#5" y="2.171"/><use xlink:href="#6" y="4.342"/><use xlink:href="#7" y="6.513"/><use xlink:href="#11" y="8.684"/><use xlink:href="#9" y="10.855"/><use xlink:href="#10" y="13.026"/><use xlink:href="#12" y="17.368"/><use xlink:href="#13" y="19.539"/><use xlink:href="#15" y="21.71"/><use xlink:href="#16" y="23.881"/><use xlink:href="#17" y="26.052"/><use xlink:href="#18" y="28.223"/><use xlink:href="#19" y="30.394"/><use xlink:href="#21" y="32.565"/><use xlink:href="#22" y="34.736"/></svg><svg x="10125"><use xlink:href="#a"/><use xlink:href="#b" x="-.004" y="36.882"/><use xlink:href="#4"/><use xlink:href="#5" y="2.171"/><use xlink:href="#6" y="4.342"/><use xlink:href="#7" y="6.513"/><use xlink:href="#11" y="8.684"/><use xlink:href="#9" y="10.855"/><use xlink:href="#10" y="13.026"/><use xlink:href="#12" y="17.368"/><use xlink:href="#13" y="19.539"/><use xlink:href="#15" y="21.71"/><use xlink:href="#16" y="23.881"/><use xlink:href="#17" y="26.052"/><use xlink:href="#18" y="28.223"/><use xlink:href="#19" y="30.394"/><use xlink:href="#21" y="32.565"/><use xlink:href="#22" y="34.736"/></svg><svg x="10260"><use xlink:href="#a"/><use xlink:href="#b" x="3.996" y="36.882"/><use xlink:href="#4"/><use xlink:href="#5" y="2.171"/><use xlink:href="#6" y="4.342"/><use xlink:href="#7" y="6.513"/><use xlink:href="#11" y="8.684"/><use xlink:href="#9" y="10.855"/><use xlink:href="#10" y="13.026"/><use xlink:href="#12" y="17.368"/><use xlink:href="#13" y="19.539"/><use xlink:href="#15" y="21.71"/><use xlink:href="#16" y="23.881"/><use xlink:href="#17" y="26.052"/><use xlink:href="#18" y="28.223"/><use xlink:href="#19" y="30.394"/><use xlink:href="#21" y="32.565"/><use xlink:href="#22" y="34.736"/><use xlink:href="#1" y="36.907"/></svg><svg x="10395"><use xlink:href="#a"/><use xlink:href="#b" x="3.996" y="36.882"/><use xlink:href="#4"/><use xlink:href="#5" y="2.171"/><use xlink:href="#6" y="4.342"/><use xlink:href="#7" y="6.513"/><use xlink:href="#11" y="8.684"/><use xlink:href="#9" y="10.855"/><use xlink:href="#10" y="13.026"/><use xlink:href="#12" y="17.368"/><use xlink:href="#13" y="19.539"/><use xlink:href="#15" y="21.71"/><use xlink:href="#16" y="23.881"/><use xlink:href="#17" y="26.052"/><use xlink:href="#18" y="28.223"/><use xlink:href="#19" y="30.394"/><use xlink:href="#21" y="32.565"/><use xlink:href="#22" y="34.736"/><use xlink:href="#1" y="36.907"/></svg><svg x="10530"><use xlink:href="#a"/><use xlink:href="#b" x="3.996" y="36.882"/><use xlink:href="#4"/><use xlink:href="#5" y="2.171"/><use xlink:href="#6" y="4.342"/><use xlink:href="#7" y="6.513"/><use xlink:href="#11" y="8.684"/><use xlink:href="#9" y="10.855"/><use xlink:href="#10" y="13.026"/><use xlink:href="#12" y="17.368"/><use xlink:href="#13" y="19.539"/><use xlink:href="#15" y="21.71"/><use xlink:href="#16" y="23.881"/><use xlink:href="#17" y="26.052"/><use xlink:href="#18" y="28.223"/><use xlink:href="#19" y="30.394"/><use xlink:href="#21" y="32.565"/><use xlink:href="#22" y="34.736"/><use xlink:href="#1" y="36.907"/></svg><svg x="10665"><use xlink:href="#a"/><use xlink:href="#b" x="-.004" y="39.053"/><use xlink:href="#4"/><use xlink:href="#5" y="2.171"/><use xlink:href="#6" y="4.342"/><use xlink:href="#7" y="6.513"/><use xlink:href="#11" y="8.684"/><use xlink:href="#9" y="10.855"/><use xlink:href="#10" y="13.026"/><use xlink:href="#12" y="17.368"/><use xlink:href="#13" y="19.539"/><use xlink:href="#15" y="21.71"/><use xlink:href="#16" y="23.881"/><use xlink:href="#17" y="26.052"/><use xlink:href="#18" y="28.223"/><use xlink:href="#19" y="30.394"/><use xlink:href="#21" y="32.565"/><use xlink:href="#22" y="34.736"/><use xlink:href="#1" y="36.907"/></svg></svg></g></g></svg></svg>